<svg height="512pt" viewBox="0 -16 512 512" width="512pt" xmlns="http://www.w3.org/2000/svg"><path d="m467.105469 188.625h-422.207031c-24.757813 0-44.898438 20.144531-44.898438 44.898438v.269531c0 24.757812 20.140625 44.898437 44.898438 44.898437h422.207031c24.753906 0 44.894531-20.140625 44.894531-44.898437v-.269531c0-24.753907-20.140625-44.898438-44.894531-44.898438zm0 0"/><path d="m497 349.191406h-24.40625c-.878906-2.195312-1.839844-4.328125-2.875-6.402344-14.398438-28.792968-42.917969-44.652343-80.308594-44.652343-4.554687 0-8.71875.027343-12.730468.085937-31.882813.464844-50.824219 3.171875-65.382813 9.351563-5.964844 2.53125-11.308594 5.738281-15.875 9.523437-6.839844 5.667969-12.101563 12.777344-15.632813 21.125-1.640624 3.867188-2.902343 7.292969-3.792968 10.96875h-39.964844c-.898438-3.648437-2.171875-7.082031-3.816406-10.964844-3.539063-8.355468-8.796875-15.460937-15.632813-21.128906-4.570312-3.785156-9.910156-6.988281-15.882812-9.527344-14.554688-6.175781-33.496094-8.882812-65.375-9.347656-4.015625-.058594-8.179688-.085937-12.734375-.085937-37.386719 0-65.90625 15.859375-80.308594 44.652343-1.035156 2.070313-1.996094 4.207032-2.875 6.402344h-24.40625c-8.285156 0-15 6.714844-15 15 0 8.28125 6.714844 15 15 15h17.644531c-.25 3.210938-.375 6.535156-.375 9.875 0 50.140625 40.515625 90.929688 90.316407 90.929688 30.410156 0 59.742187-13.53125 82.59375-38.101563 8.292968-8.910156 15.238281-18.753906 20.644531-29.253906 3.007812-5.839844 5.488281-11.816406 7.375-17.757813 1.667969-5.257812 2.875-10.523437 3.609375-15.691406h38.386718c.730469 5.167969 1.9375 10.433594 3.609376 15.691406 1.882812 5.945313 4.367187 11.917969 7.371093 17.753907 5.40625 10.5 12.351563 20.34375 20.644531 29.257812 22.851563 24.574219 52.183594 38.105469 82.589844 38.105469 49.804688 0 90.320313-40.792969 90.320313-90.929688 0-3.351562-.125-6.675781-.375-9.878906h17.644531c8.285156 0 15-6.714844 15-15s-6.714844-15-15-15zm0 0"/><path d="m414.496094 27.578125c-3.085938-10.574219-10.570313-19.3125-20.53125-23.972656-9.9375-4.652344-21.402344-4.808594-31.460938-.425781l-71.722656 31.246093c-22.105469 9.628907-47.460938 9.628907-69.5625 0l-71.722656-31.246093c-10.058594-4.382813-21.523438-4.230469-31.460938.425781-9.960937 4.664062-17.445312 13.402343-20.53125 23.976562l-16.605468 56.859375h350.203124zm0 0"/><path d="m439.863281 114.441406h-367.726562l-12.90625 44.183594h393.539062zm0 0"/></svg>