<?xml version="1.0" standalone="no"?>
<!DOCTYPE svg PUBLIC "-//W3C//DTD SVG 20010904//EN"
 "http://www.w3.org/TR/2001/REC-SVG-20010904/DTD/svg10.dtd">
<svg height="166.000000pt" preserveAspectRatio="xMidYMid meet"
 version="1.0" viewBox="0 0 168.000000 166.000000" width="168.000000pt"
 xmlns="http://www.w3.org/2000/svg">
<metadata>
Created by potrace 1.16, written by Peter Selinger 2001-2019
</metadata>
<g fill="#000000"
stroke="none" transform="translate(0.000000,166.000000) scale(0.100000,-0.100000)">
<path d="M285 1618 c-112 -62 -141 -212 -57 -302 34 -36 97 -66 142 -66 70 0
155 59 179 123 35 93 -15 213 -102 246 -37 14 -136 14 -162 -1z"/>
<path d="M952 1464 c-15 -11 -22 -25 -22 -50 0 -38 5 -42 100 -68 68 -20 138
-71 180 -131 36 -52 35 -61 -3 -44 -56 26 -106 -52 -59 -94 29 -26 166 -97
188 -97 27 0 42 18 92 111 48 87 50 101 22 129 -26 26 -65 26 -83 0 -13 -19
-15 -18 -33 22 -26 57 -118 149 -181 182 -43 21 -149 56 -173 56 -3 0 -16 -7
-28 -16z"/>
<path d="M212 1214 c-23 -9 -64 -37 -91 -63 -63 -62 -83 -119 -79 -232 l3 -84
325 0 325 0 0 100 c0 114 -14 154 -75 215 -63 63 -99 75 -240 77 -92 2 -136
-2 -168 -13z"/>
<path d="M1194 811 c-134 -82 -122 -277 21 -342 73 -34 159 -15 217 47 83 89
55 243 -54 300 -41 21 -146 18 -184 -5z"/>
<path d="M288 663 c-24 -28 -98 -168 -98 -186 0 -23 36 -57 60 -57 11 0 29 9
39 19 19 19 19 18 37 -22 26 -57 118 -149 182 -181 29 -15 80 -33 113 -42 55
-14 62 -14 85 0 18 12 24 25 24 51 0 39 -9 46 -85 64 -87 21 -159 78 -221 175
l-18 29 21 -12 c51 -26 96 -6 96 45 0 33 -12 44 -103 93 -83 45 -109 50 -132
24z"/>
<path d="M1131 413 c-25 -9 -66 -37 -92 -63 -61 -61 -81 -120 -77 -231 l3 -84
325 0 325 0 0 100 c0 114 -14 154 -75 215 -63 63 -99 75 -240 77 -94 2 -136
-2 -169 -14z"/>
</g>
</svg>
