<?xml version="1.0" standalone="no"?>
<!DOCTYPE svg PUBLIC "-//W3C//DTD SVG 20010904//EN"
 "http://www.w3.org/TR/2001/REC-SVG-20010904/DTD/svg10.dtd">
<svg height="336.000000pt" preserveAspectRatio="xMidYMid meet"
 version="1.0" viewBox="0 0 464.000000 336.000000" width="464.000000pt"
 xmlns="http://www.w3.org/2000/svg">
<metadata>
Created by potrace 1.16, written by Peter Selinger 2001-2019
</metadata>
<g fill="#000000"
stroke="none" transform="translate(0.000000,336.000000) scale(0.100000,-0.100000)">
<path d="M152 3260 c-18 -11 -41 -34 -52 -52 -20 -33 -20 -54 -20 -1528 0
-1474 0 -1495 20 -1528 11 -18 34 -41 52 -52 33 -20 55 -20 2168 -20 2113 0
2135 0 2168 20 18 11 41 34 52 52 20 33 20 54 20 1528 0 1474 0 1495 -20 1528
-11 18 -34 41 -52 52 -33 20 -55 20 -2168 20 -2113 0 -2135 0 -2168 -20z
m4088 -1580 l0 -1280 -1920 0 -1920 0 0 1280 0 1280 1920 0 1920 0 0 -1280z"/>
<path d="M1614 2640 c-179 -27 -332 -149 -389 -309 -145 -413 267 -796 660
-612 178 83 275 239 275 441 0 146 -47 257 -148 352 -108 101 -258 150 -398
128z"/>
<path d="M2640 2560 l0 -80 640 0 640 0 0 80 0 80 -640 0 -640 0 0 -80z"/>
<path d="M2640 2240 l0 -80 640 0 640 0 0 80 0 80 -640 0 -640 0 0 -80z"/>
<path d="M3280 1920 l0 -80 320 0 320 0 0 80 0 80 -320 0 -320 0 0 -80z"/>
<path d="M1550 1523 c-384 -42 -727 -198 -806 -368 -22 -46 -24 -63 -24 -222
l0 -172 26 -20 c27 -21 31 -21 934 -21 l907 0 27 21 27 21 -3 188 -3 187 -35
52 c-102 151 -395 281 -739 326 -99 14 -229 17 -311 8z"/>
</g>
</svg>
